<?xml version="1.0" encoding="UTF-8"?>
<svg width="240px" height="46px" viewBox="0 0 240 46" version="1.1" xmlns="http://www.w3.org/2000/svg" xmlns:xlink="http://www.w3.org/1999/xlink">
    <!-- Generator: Sketch 49.3 (51167) - http://www.bohemiancoding.com/sketch -->
    <title>glyph</title>
    <desc>Created with Sketch.</desc>
    <defs></defs>
    <g id="website" stroke="none" stroke-width="1" fill="none" fill-rule="evenodd">
        <path d="M218,29 L202,29 L202,41 L202,45 L194,45 L190,45 L190,1 L194,1 L194,41 L198,41 L198,25 L202,25 L218,25 L218,5 L218,1 L230,1 L230,5 L230,45 L226,45 L226,5 L222,5 L222,45 L218,45 L218,29 Z M183.776098,15.5777743 L180.00284,16.9095123 C177.464345,9.40338264 170.363186,4 162,4 C151.50659,4 143,12.5065898 143,23 C143,33.4934102 151.50659,42 162,42 C170.188133,42 177.166518,36.8204503 179.837471,29.559034 L183.610729,30.890772 C180.390912,39.7066555 171.930401,46 162,46 C149.297451,46 139,35.7025492 139,23 C139,10.2974508 149.297451,0 162,0 C172.105453,0 180.688737,6.51717645 183.776098,15.5777743 Z M126,32 L126,38 L122,32 L102,1 L107,1 L122,24.6842105 L122,5 L122,1 L134,1 L134,5 L134,45 L130,45 L130,5 L126,5 L126,32 Z M106,41 L106,45 L98,45 L94,45 L94,1 L98,1 L98,41 L102,41 L102,25 L106,25 L106,41 Z M66,21 L62,21 L62,5 L62,1 L86,1 L86,5 L66,5 L66,17 L86,17 L86,21 L66,21 Z M58,41 L86,41 L86,45 L58,45 L54,45 L54,1 L58,1 L58,41 Z M10,41 L14,41 L28,41 C37.9411255,41 46,32.9411255 46,23 C46,13.0588745 37.9411255,5 28,5 L22,5 L22,37 L18,37 L18,1 L28,1 C40.1502645,1 50,10.8497355 50,23 C50,35.1502645 40.1502645,45 28,45 L10,45 L10,41 Z M10,37 L10,1 L14,1 L14,37 L10,37 Z" id="Combined-Shape" fill="#FFFFFF"></path>
        <rect id="Rectangle-17" fill="#FFFFFF" x="236" y="41" width="4" height="4"></rect>
    </g>
</svg>